<svg width="56" height="56" viewBox="0 0 56 56" fill="none" xmlns="http://www.w3.org/2000/svg">
<path d="M46.6668 49H9.33342C6.75609 49 4.66675 46.9107 4.66675 44.3333V11.6667C4.66675 9.08934 6.75609 7 9.33342 7H23.3334C23.9522 7 24.5456 7.24605 24.9831 7.68367L28.9661 11.6667H46.6668C49.2441 11.6667 51.3334 13.756 51.3334 16.3333V44.3333C51.3334 46.9107 49.2441 49 46.6668 49ZM9.33342 16.3333V44.3333H46.6668V16.3333H9.33342ZM30.3334 39.6667H25.6667V32.6667H18.6667V28H25.6667V21H30.3334V28H37.3334V32.6667H30.3334V39.6667Z" fill="#2E3A59"/>
</svg>
